<?xml version="1.0" encoding="utf-8"?>
<!-- Generator: Adobe Illustrator 27.1.1, SVG Export Plug-In . SVG Version: 6.00 Build 0)  -->
<svg version="1.1" xmlns="http://www.w3.org/2000/svg" xmlns:xlink="http://www.w3.org/1999/xlink" x="0px" y="0px"
	 viewBox="0 0 3670 1440" style="enable-background:new 0 0 3670 1440;" xml:space="preserve">
<style type="text/css">
	.st0{fill:#FFFFFF;}
	.st1{fill:none;stroke:#000000;}
	.st2{font-family:'MonoLisa-Bold';}
	.st3{font-size:32px;}
	.st4{font-size:18px;}
	.st5{fill:#FFFFFF;stroke:#000000;}
	.st6{fill:none;stroke:#000000;stroke-miterlimit:10;}
	.st7{font-size:22px;}
	.st8{fill:#B3B3B3;}
	.st9{clip-path:url(#SVGID_00000176726222148254568610000018096909961727865225_);}
	.st10{font-size:28px;}
</style>
<g id="Layer_2">
</g>
<g id="Layer_4">
	<g>
		<g>
			<g>
				<g>
					<path class="st0" d="M440.97,1195.5c-2.76,0-5-2.24-5-5v-840c0-2.76,2.24-5,5-5h1006c2.76,0,5,2.24,5,5v840c0,2.76-2.24,5-5,5
						H440.97z"/>
					<path d="M1446.97,346c2.48,0,4.5,2.02,4.5,4.5v840c0,2.48-2.02,4.5-4.5,4.5h-1006c-2.48,0-4.5-2.02-4.5-4.5v-840
						c0-2.48,2.02-4.5,4.5-4.5H1446.97 M1446.97,345h-1006c-3.04,0-5.5,2.46-5.5,5.5v840c0,3.04,2.46,5.5,5.5,5.5h1006
						c3.04,0,5.5-2.46,5.5-5.5v-840C1452.47,347.46,1450.01,345,1446.97,345L1446.97,345z"/>
				</g>
				<g>
					<line class="st1" x1="435.47" y1="422" x2="1452.47" y2="422"/>
				</g>
				<text transform="matrix(1 0 0 1 469.9734 393.5)" class="st2 st3">Overview title</text>
				<text transform="matrix(1 0 0 1 997.5291 388.3828)" class="st2 st4">Display:</text>
				<g>
					<path d="M1242.08,408h-102.22c-7.39,0-13.39-5.99-13.39-13.39v-19.22c0-7.39,5.99-13.39,13.39-13.39h102.22
						c7.39,0,13.39,5.99,13.39,13.39v19.22C1255.47,402.01,1249.48,408,1242.08,408z"/>
					<path class="st5" d="M1240.08,406h-102.22c-7.39,0-13.39-5.99-13.39-13.39v-19.22c0-7.39,5.99-13.39,13.39-13.39h102.22
						c7.39,0,13.39,5.99,13.39,13.39v19.22C1253.47,400.01,1247.48,406,1240.08,406z"/>
					<g>
						<rect x="1136.47" y="367" class="st5" width="31" height="31"/>
						<line class="st5" x1="1136.47" y1="367" x2="1167.47" y2="398"/>
						<line class="st5" x1="1167.47" y1="367" x2="1136.47" y2="398"/>
					</g>
					<text transform="matrix(1 0 0 1 1183.0847 387.7222)" class="st2 st4">Grid</text>
				</g>
				<g>
					<path d="M1401.08,408h-102.22c-7.39,0-13.39-5.99-13.39-13.39v-19.22c0-7.39,5.99-13.39,13.39-13.39h102.22
						c7.39,0,13.39,5.99,13.39,13.39v19.22C1414.47,402.01,1408.48,408,1401.08,408z"/>
					<path class="st5" d="M1399.08,406h-102.22c-7.39,0-13.39-5.99-13.39-13.39v-19.22c0-7.39,5.99-13.39,13.39-13.39h102.22
						c7.39,0,13.39,5.99,13.39,13.39v19.22C1412.47,400.01,1406.48,406,1399.08,406z"/>
					<g>
						<rect x="1295.47" y="367" class="st5" width="31" height="31"/>
						<line class="st5" x1="1295.47" y1="367" x2="1326.47" y2="398"/>
						<line class="st5" x1="1326.47" y1="367" x2="1295.47" y2="398"/>
					</g>
					<text transform="matrix(1 0 0 1 1342.0847 387.7222)" class="st2 st4">List</text>
				</g>
			</g>
			<rect x="287.47" y="250.5" class="st1" width="1313" height="1040"/>
			<g>
				<line class="st1" x1="287.47" y1="330.5" x2="1600.47" y2="330.5"/>
				<line class="st1" x1="287.47" y1="1210.5" x2="1600.47" y2="1210.5"/>
			</g>
			<text transform="matrix(1 0 0 1 869.0935 296.5)" class="st2 st4">Global Header</text>
			<text transform="matrix(1 0 0 1 869.0935 1253.5)" class="st2 st4">Global Footer</text>
		</g>
		<g>
			<circle class="st6" cx="478.47" cy="468" r="29"/>
			<path class="st6" d="M1441.64,505H446.31c-1.56,0-2.83-1.27-2.83-2.83v-67.33c0-1.56,1.27-2.83,2.83-2.83h995.33
				c1.56,0,2.83,1.27,2.83,2.83v67.33C1444.47,503.73,1443.2,505,1441.64,505z"/>
			<line class="st6" x1="457.97" y1="447.49" x2="498.98" y2="488.51"/>
			<line class="st6" x1="498.98" y1="447.49" x2="457.97" y2="488.51"/>
			<text transform="matrix(1 0 0 1 526.6404 472.8335)" class="st2 st7">Character name</text>
			<g>
				<path d="M1401.33,492.08h-122.22c-7.39,0-13.39-5.99-13.39-13.39v-19.22c0-7.39,5.99-13.39,13.39-13.39h122.22
					c7.39,0,13.39,5.99,13.39,13.39v19.22C1414.72,486.09,1408.73,492.08,1401.33,492.08z"/>
				<path class="st5" d="M1399.33,490.08h-122.22c-7.39,0-13.39-5.99-13.39-13.39v-19.22c0-7.39,5.99-13.39,13.39-13.39h122.22
					c7.39,0,13.39,5.99,13.39,13.39v19.22C1412.72,484.09,1406.73,490.08,1399.33,490.08z"/>
				<g>
					<rect x="1275.72" y="451.08" class="st5" width="31" height="31"/>
					<line class="st5" x1="1275.72" y1="451.08" x2="1306.72" y2="482.08"/>
					<line class="st5" x1="1306.72" y1="451.08" x2="1275.72" y2="482.08"/>
				</g>
				<text transform="matrix(1 0 0 1 1322.3347 471.8055)" class="st2 st4">Details</text>
			</g>
		</g>
		<g>
			<circle class="st6" cx="478.47" cy="548" r="29"/>
			<path class="st6" d="M1441.64,585H446.31c-1.56,0-2.83-1.27-2.83-2.83v-67.33c0-1.56,1.27-2.83,2.83-2.83h995.33
				c1.56,0,2.83,1.27,2.83,2.83v67.33C1444.47,583.73,1443.2,585,1441.64,585z"/>
			<line class="st6" x1="457.97" y1="527.49" x2="498.98" y2="568.51"/>
			<line class="st6" x1="498.98" y1="527.49" x2="457.97" y2="568.51"/>
			<text transform="matrix(1 0 0 1 526.6404 552.8335)" class="st2 st7">Character name</text>
			<g>
				<path d="M1401.33,572.08h-122.22c-7.39,0-13.39-5.99-13.39-13.39v-19.22c0-7.39,5.99-13.39,13.39-13.39h122.22
					c7.39,0,13.39,5.99,13.39,13.39v19.22C1414.72,566.09,1408.73,572.08,1401.33,572.08z"/>
				<path class="st5" d="M1399.33,570.08h-122.22c-7.39,0-13.39-5.99-13.39-13.39v-19.22c0-7.39,5.99-13.39,13.39-13.39h122.22
					c7.39,0,13.39,5.99,13.39,13.39v19.22C1412.72,564.09,1406.73,570.08,1399.33,570.08z"/>
				<g>
					<rect x="1275.72" y="531.08" class="st5" width="31" height="31"/>
					<line class="st5" x1="1275.72" y1="531.08" x2="1306.72" y2="562.08"/>
					<line class="st5" x1="1306.72" y1="531.08" x2="1275.72" y2="562.08"/>
				</g>
				<text transform="matrix(1 0 0 1 1322.3347 551.8055)" class="st2 st4">Details</text>
			</g>
		</g>
		<g>
			<circle class="st6" cx="478.47" cy="628" r="29"/>
			<path class="st6" d="M1441.64,665H446.31c-1.56,0-2.83-1.27-2.83-2.83v-67.33c0-1.56,1.27-2.83,2.83-2.83h995.33
				c1.56,0,2.83,1.27,2.83,2.83v67.33C1444.47,663.73,1443.2,665,1441.64,665z"/>
			<line class="st6" x1="457.97" y1="607.49" x2="498.98" y2="648.51"/>
			<line class="st6" x1="498.98" y1="607.49" x2="457.97" y2="648.51"/>
			<text transform="matrix(1 0 0 1 526.6404 632.8335)" class="st2 st7">Character name</text>
			<g>
				<path d="M1401.33,652.08h-122.22c-7.39,0-13.39-5.99-13.39-13.39v-19.22c0-7.39,5.99-13.39,13.39-13.39h122.22
					c7.39,0,13.39,5.99,13.39,13.39v19.22C1414.72,646.09,1408.73,652.08,1401.33,652.08z"/>
				<path class="st5" d="M1399.33,650.08h-122.22c-7.39,0-13.39-5.99-13.39-13.39v-19.22c0-7.39,5.99-13.39,13.39-13.39h122.22
					c7.39,0,13.39,5.99,13.39,13.39v19.22C1412.72,644.09,1406.73,650.08,1399.33,650.08z"/>
				<g>
					<rect x="1275.72" y="611.08" class="st5" width="31" height="31"/>
					<line class="st5" x1="1275.72" y1="611.08" x2="1306.72" y2="642.08"/>
					<line class="st5" x1="1306.72" y1="611.08" x2="1275.72" y2="642.08"/>
				</g>
				<text transform="matrix(1 0 0 1 1322.3347 631.8055)" class="st2 st4">Details</text>
			</g>
		</g>
		<g>
			<circle class="st6" cx="478.47" cy="708" r="29"/>
			<path class="st6" d="M1441.64,745H446.31c-1.56,0-2.83-1.27-2.83-2.83v-67.33c0-1.56,1.27-2.83,2.83-2.83h995.33
				c1.56,0,2.83,1.27,2.83,2.83v67.33C1444.47,743.73,1443.2,745,1441.64,745z"/>
			<line class="st6" x1="457.97" y1="687.49" x2="498.98" y2="728.51"/>
			<line class="st6" x1="498.98" y1="687.49" x2="457.97" y2="728.51"/>
			<text transform="matrix(1 0 0 1 526.6404 712.8335)" class="st2 st7">Character name</text>
			<g>
				<path d="M1401.33,732.08h-122.22c-7.39,0-13.39-5.99-13.39-13.39v-19.22c0-7.39,5.99-13.39,13.39-13.39h122.22
					c7.39,0,13.39,5.99,13.39,13.39v19.22C1414.72,726.09,1408.73,732.08,1401.33,732.08z"/>
				<path class="st5" d="M1399.33,730.08h-122.22c-7.39,0-13.39-5.99-13.39-13.39v-19.22c0-7.39,5.99-13.39,13.39-13.39h122.22
					c7.39,0,13.39,5.99,13.39,13.39v19.22C1412.72,724.09,1406.73,730.08,1399.33,730.08z"/>
				<g>
					<rect x="1275.72" y="691.08" class="st5" width="31" height="31"/>
					<line class="st5" x1="1275.72" y1="691.08" x2="1306.72" y2="722.08"/>
					<line class="st5" x1="1306.72" y1="691.08" x2="1275.72" y2="722.08"/>
				</g>
				<text transform="matrix(1 0 0 1 1322.3347 711.8055)" class="st2 st4">Details</text>
			</g>
		</g>
		<g>
			<circle class="st6" cx="478.47" cy="788" r="29"/>
			<path class="st6" d="M1441.64,825H446.31c-1.56,0-2.83-1.27-2.83-2.83v-67.33c0-1.56,1.27-2.83,2.83-2.83h995.33
				c1.56,0,2.83,1.27,2.83,2.83v67.33C1444.47,823.73,1443.2,825,1441.64,825z"/>
			<line class="st6" x1="457.97" y1="767.49" x2="498.98" y2="808.51"/>
			<line class="st6" x1="498.98" y1="767.49" x2="457.97" y2="808.51"/>
			<text transform="matrix(1 0 0 1 526.6404 792.8335)" class="st2 st7">Character name</text>
			<g>
				<path d="M1401.33,812.08h-122.22c-7.39,0-13.39-5.99-13.39-13.39v-19.22c0-7.39,5.99-13.39,13.39-13.39h122.22
					c7.39,0,13.39,5.99,13.39,13.39v19.22C1414.72,806.09,1408.73,812.08,1401.33,812.08z"/>
				<path class="st5" d="M1399.33,810.08h-122.22c-7.39,0-13.39-5.99-13.39-13.39v-19.22c0-7.39,5.99-13.39,13.39-13.39h122.22
					c7.39,0,13.39,5.99,13.39,13.39v19.22C1412.72,804.09,1406.73,810.08,1399.33,810.08z"/>
				<g>
					<rect x="1275.72" y="771.08" class="st5" width="31" height="31"/>
					<line class="st5" x1="1275.72" y1="771.08" x2="1306.72" y2="802.08"/>
					<line class="st5" x1="1306.72" y1="771.08" x2="1275.72" y2="802.08"/>
				</g>
				<text transform="matrix(1 0 0 1 1322.3347 791.8055)" class="st2 st4">Details</text>
			</g>
		</g>
		<g>
			<circle class="st6" cx="478.47" cy="868" r="29"/>
			<path class="st6" d="M1441.64,905H446.31c-1.56,0-2.83-1.27-2.83-2.83v-67.33c0-1.56,1.27-2.83,2.83-2.83h995.33
				c1.56,0,2.83,1.27,2.83,2.83v67.33C1444.47,903.73,1443.2,905,1441.64,905z"/>
			<line class="st6" x1="457.97" y1="847.49" x2="498.98" y2="888.51"/>
			<line class="st6" x1="498.98" y1="847.49" x2="457.97" y2="888.51"/>
			<text transform="matrix(1 0 0 1 526.6404 872.8335)" class="st2 st7">Character name</text>
			<g>
				<path d="M1401.33,892.08h-122.22c-7.39,0-13.39-5.99-13.39-13.39v-19.22c0-7.39,5.99-13.39,13.39-13.39h122.22
					c7.39,0,13.39,5.99,13.39,13.39v19.22C1414.72,886.09,1408.73,892.08,1401.33,892.08z"/>
				<path class="st5" d="M1399.33,890.08h-122.22c-7.39,0-13.39-5.99-13.39-13.39v-19.22c0-7.39,5.99-13.39,13.39-13.39h122.22
					c7.39,0,13.39,5.99,13.39,13.39v19.22C1412.72,884.09,1406.73,890.08,1399.33,890.08z"/>
				<g>
					<rect x="1275.72" y="851.08" class="st5" width="31" height="31"/>
					<line class="st5" x1="1275.72" y1="851.08" x2="1306.72" y2="882.08"/>
					<line class="st5" x1="1306.72" y1="851.08" x2="1275.72" y2="882.08"/>
				</g>
				<text transform="matrix(1 0 0 1 1322.3347 871.8055)" class="st2 st4">Details</text>
			</g>
		</g>
		<g>
			<circle class="st6" cx="478.47" cy="948" r="29"/>
			<path class="st6" d="M1441.64,985H446.31c-1.56,0-2.83-1.27-2.83-2.83v-67.33c0-1.56,1.27-2.83,2.83-2.83h995.33
				c1.56,0,2.83,1.27,2.83,2.83v67.33C1444.47,983.73,1443.2,985,1441.64,985z"/>
			<line class="st6" x1="457.97" y1="927.49" x2="498.98" y2="968.51"/>
			<line class="st6" x1="498.98" y1="927.49" x2="457.97" y2="968.51"/>
			<text transform="matrix(1 0 0 1 526.6404 952.8335)" class="st2 st7">Character name</text>
			<g>
				<path d="M1401.33,972.08h-122.22c-7.39,0-13.39-5.99-13.39-13.39v-19.22c0-7.39,5.99-13.39,13.39-13.39h122.22
					c7.39,0,13.39,5.99,13.39,13.39v19.22C1414.72,966.09,1408.73,972.08,1401.33,972.08z"/>
				<path class="st5" d="M1399.33,970.08h-122.22c-7.39,0-13.39-5.99-13.39-13.39v-19.22c0-7.39,5.99-13.39,13.39-13.39h122.22
					c7.39,0,13.39,5.99,13.39,13.39v19.22C1412.72,964.09,1406.73,970.08,1399.33,970.08z"/>
				<g>
					<rect x="1275.72" y="931.08" class="st5" width="31" height="31"/>
					<line class="st5" x1="1275.72" y1="931.08" x2="1306.72" y2="962.08"/>
					<line class="st5" x1="1306.72" y1="931.08" x2="1275.72" y2="962.08"/>
				</g>
				<text transform="matrix(1 0 0 1 1322.3347 951.8055)" class="st2 st4">Details</text>
			</g>
		</g>
		<g>
			<circle class="st6" cx="478.47" cy="1028" r="29"/>
			<path class="st6" d="M1441.64,1065H446.31c-1.56,0-2.83-1.27-2.83-2.83v-67.33c0-1.56,1.27-2.83,2.83-2.83h995.33
				c1.56,0,2.83,1.27,2.83,2.83v67.33C1444.47,1063.73,1443.2,1065,1441.64,1065z"/>
			<line class="st6" x1="457.97" y1="1007.49" x2="498.98" y2="1048.51"/>
			<line class="st6" x1="498.98" y1="1007.49" x2="457.97" y2="1048.51"/>
			<text transform="matrix(1 0 0 1 526.6404 1032.8335)" class="st2 st7">Character name</text>
			<g>
				<path d="M1401.33,1052.08h-122.22c-7.39,0-13.39-5.99-13.39-13.39v-19.22c0-7.39,5.99-13.39,13.39-13.39h122.22
					c7.39,0,13.39,5.99,13.39,13.39v19.22C1414.72,1046.09,1408.73,1052.08,1401.33,1052.08z"/>
				<path class="st5" d="M1399.33,1050.08h-122.22c-7.39,0-13.39-5.99-13.39-13.39v-19.22c0-7.39,5.99-13.39,13.39-13.39h122.22
					c7.39,0,13.39,5.99,13.39,13.39v19.22C1412.72,1044.09,1406.73,1050.08,1399.33,1050.08z"/>
				<g>
					<rect x="1275.72" y="1011.08" class="st5" width="31" height="31"/>
					<line class="st5" x1="1275.72" y1="1011.08" x2="1306.72" y2="1042.08"/>
					<line class="st5" x1="1306.72" y1="1011.08" x2="1275.72" y2="1042.08"/>
				</g>
				<text transform="matrix(1 0 0 1 1322.3347 1031.8054)" class="st2 st4">Details</text>
			</g>
		</g>
		<g>
			<circle class="st6" cx="478.47" cy="1108" r="29"/>
			<path class="st6" d="M1441.64,1145H446.31c-1.56,0-2.83-1.27-2.83-2.83v-67.33c0-1.56,1.27-2.83,2.83-2.83h995.33
				c1.56,0,2.83,1.27,2.83,2.83v67.33C1444.47,1143.73,1443.2,1145,1441.64,1145z"/>
			<line class="st6" x1="457.97" y1="1087.49" x2="498.98" y2="1128.51"/>
			<line class="st6" x1="498.98" y1="1087.49" x2="457.97" y2="1128.51"/>
			<text transform="matrix(1 0 0 1 526.6404 1112.8335)" class="st2 st7">Character name</text>
			<g>
				<path d="M1401.33,1132.08h-122.22c-7.39,0-13.39-5.99-13.39-13.39v-19.22c0-7.39,5.99-13.39,13.39-13.39h122.22
					c7.39,0,13.39,5.99,13.39,13.39v19.22C1414.72,1126.09,1408.73,1132.08,1401.33,1132.08z"/>
				<path class="st5" d="M1399.33,1130.08h-122.22c-7.39,0-13.39-5.99-13.39-13.39v-19.22c0-7.39,5.99-13.39,13.39-13.39h122.22
					c7.39,0,13.39,5.99,13.39,13.39v19.22C1412.72,1124.09,1406.73,1130.08,1399.33,1130.08z"/>
				<g>
					<rect x="1275.72" y="1091.08" class="st5" width="31" height="31"/>
					<line class="st5" x1="1275.72" y1="1091.08" x2="1306.72" y2="1122.08"/>
					<line class="st5" x1="1306.72" y1="1091.08" x2="1275.72" y2="1122.08"/>
				</g>
				<text transform="matrix(1 0 0 1 1322.3347 1111.8054)" class="st2 st4">Details</text>
			</g>
		</g>
	</g>
</g>
<g id="Layer_3">
</g>
<g id="Layer_5">
	<g>
		<g>
			<g>
				<g>
					<path class="st0" d="M2094.47,1195.5c-2.76,0-5-2.24-5-5v-840c0-2.76,2.24-5,5-5h1006c2.76,0,5,2.24,5,5v840c0,2.76-2.24,5-5,5
						H2094.47z"/>
					<path d="M3100.47,346c2.48,0,4.5,2.02,4.5,4.5v840c0,2.48-2.02,4.5-4.5,4.5h-1006c-2.48,0-4.5-2.02-4.5-4.5v-840
						c0-2.48,2.02-4.5,4.5-4.5H3100.47 M3100.47,345h-1006c-3.04,0-5.5,2.46-5.5,5.5v840c0,3.04,2.46,5.5,5.5,5.5h1006
						c3.04,0,5.5-2.46,5.5-5.5v-840C3105.97,347.46,3103.51,345,3100.47,345L3100.47,345z"/>
				</g>
				<g>
					<line class="st1" x1="2088.97" y1="422" x2="3105.97" y2="422"/>
				</g>
				<text transform="matrix(1 0 0 1 2123.4731 393.5)" class="st2 st3">Overview title</text>
				<text transform="matrix(1 0 0 1 2651.0288 388.3828)" class="st2 st4">Display:</text>
				<g>
					<path d="M2895.58,408h-102.22c-7.39,0-13.39-5.99-13.39-13.39v-19.22c0-7.39,5.99-13.39,13.39-13.39h102.22
						c7.39,0,13.39,5.99,13.39,13.39v19.22C2908.97,402.01,2902.98,408,2895.58,408z"/>
					<path class="st5" d="M2893.58,406h-102.22c-7.39,0-13.39-5.99-13.39-13.39v-19.22c0-7.39,5.99-13.39,13.39-13.39h102.22
						c7.39,0,13.39,5.99,13.39,13.39v19.22C2906.97,400.01,2900.98,406,2893.58,406z"/>
					<g>
						<rect x="2789.97" y="367" class="st5" width="31" height="31"/>
						<line class="st5" x1="2789.97" y1="367" x2="2820.97" y2="398"/>
						<line class="st5" x1="2820.97" y1="367" x2="2789.97" y2="398"/>
					</g>
					<text transform="matrix(1 0 0 1 2836.5845 387.7222)" class="st2 st4">Grid</text>
				</g>
				<g>
					<path d="M3054.58,408h-102.22c-7.39,0-13.39-5.99-13.39-13.39v-19.22c0-7.39,5.99-13.39,13.39-13.39h102.22
						c7.39,0,13.39,5.99,13.39,13.39v19.22C3067.97,402.01,3061.98,408,3054.58,408z"/>
					<path class="st5" d="M3052.58,406h-102.22c-7.39,0-13.39-5.99-13.39-13.39v-19.22c0-7.39,5.99-13.39,13.39-13.39h102.22
						c7.39,0,13.39,5.99,13.39,13.39v19.22C3065.97,400.01,3059.98,406,3052.58,406z"/>
					<g>
						<rect x="2948.97" y="367" class="st5" width="31" height="31"/>
						<line class="st5" x1="2948.97" y1="367" x2="2979.97" y2="398"/>
						<line class="st5" x1="2979.97" y1="367" x2="2948.97" y2="398"/>
					</g>
					<text transform="matrix(1 0 0 1 2995.5845 387.7222)" class="st2 st4">List</text>
				</g>
			</g>
			<rect x="1940.97" y="250.5" class="st1" width="1313" height="1040"/>
			<g>
				<line class="st1" x1="1940.97" y1="330.5" x2="3253.97" y2="330.5"/>
				<line class="st1" x1="1940.97" y1="1210.5" x2="3253.97" y2="1210.5"/>
			</g>
			<text transform="matrix(1 0 0 1 2522.5933 296.5)" class="st2 st4">Global Header</text>
			<text transform="matrix(1 0 0 1 2522.5933 1253.5)" class="st2 st4">Global Footer</text>
		</g>
		<g>
			<g>
				<path class="st6" d="M2411.14,849h-304.33c-1.56,0-2.83-1.27-2.83-2.83V443.83c0-1.56,1.27-2.83,2.83-2.83h304.33
					c1.56,0,2.83,1.27,2.83,2.83v402.33C2413.97,847.73,2412.7,849,2411.14,849z"/>
				<text transform="matrix(1 0 0 1 2120.1401 481.8335)" class="st2 st7">Character name</text>
				<g>
					<path d="M2386.83,830.08h-122.22c-7.39,0-13.39-5.99-13.39-13.39v-19.22c0-7.39,5.99-13.39,13.39-13.39h122.22
						c7.39,0,13.39,5.99,13.39,13.39v19.22C2400.22,824.09,2394.23,830.08,2386.83,830.08z"/>
					<path class="st5" d="M2384.83,828.08h-122.22c-7.39,0-13.39-5.99-13.39-13.39v-19.22c0-7.39,5.99-13.39,13.39-13.39h122.22
						c7.39,0,13.39,5.99,13.39,13.39v19.22C2398.22,822.09,2392.23,828.08,2384.83,828.08z"/>
					<g>
						<rect x="2261.22" y="789.08" class="st5" width="31" height="31"/>
						<line class="st5" x1="2261.22" y1="789.08" x2="2292.22" y2="820.08"/>
						<line class="st5" x1="2292.22" y1="789.08" x2="2261.22" y2="820.08"/>
					</g>
					<text transform="matrix(1 0 0 1 2307.8345 809.8055)" class="st2 st4">Details</text>
				</g>
				<rect x="2120.47" y="507" class="st6" width="277" height="169"/>
				<line x1="2120.47" y1="507" x2="2397.47" y2="676"/>
				<line x1="2397.47" y1="507" x2="2120.47" y2="676"/>
				<rect x="2120.97" y="688" class="st8" width="277" height="21"/>
				<rect x="2120.97" y="718" class="st8" width="277" height="21"/>
				<rect x="2120.97" y="748" class="st8" width="277" height="21"/>
			</g>
			<g>
				<path class="st6" d="M2749.64,849h-304.33c-1.56,0-2.83-1.27-2.83-2.83V443.83c0-1.56,1.27-2.83,2.83-2.83h304.33
					c1.56,0,2.83,1.27,2.83,2.83v402.33C2752.47,847.73,2751.2,849,2749.64,849z"/>
				<text transform="matrix(1 0 0 1 2458.6401 481.8335)" class="st2 st7">Character name</text>
				<g>
					<path d="M2725.33,830.08h-122.22c-7.39,0-13.39-5.99-13.39-13.39v-19.22c0-7.39,5.99-13.39,13.39-13.39h122.22
						c7.39,0,13.39,5.99,13.39,13.39v19.22C2738.72,824.09,2732.73,830.08,2725.33,830.08z"/>
					<path class="st5" d="M2723.33,828.08h-122.22c-7.39,0-13.39-5.99-13.39-13.39v-19.22c0-7.39,5.99-13.39,13.39-13.39h122.22
						c7.39,0,13.39,5.99,13.39,13.39v19.22C2736.72,822.09,2730.73,828.08,2723.33,828.08z"/>
					<g>
						<rect x="2599.72" y="789.08" class="st5" width="31" height="31"/>
						<line class="st5" x1="2599.72" y1="789.08" x2="2630.72" y2="820.08"/>
						<line class="st5" x1="2630.72" y1="789.08" x2="2599.72" y2="820.08"/>
					</g>
					<text transform="matrix(1 0 0 1 2646.3345 809.8055)" class="st2 st4">Details</text>
				</g>
				<rect x="2458.97" y="507" class="st6" width="277" height="169"/>
				<line x1="2458.97" y1="507" x2="2735.97" y2="676"/>
				<line x1="2735.97" y1="507" x2="2458.97" y2="676"/>
				<rect x="2459.47" y="688" class="st8" width="277" height="21"/>
				<rect x="2459.47" y="718" class="st8" width="277" height="21"/>
				<rect x="2459.47" y="748" class="st8" width="277" height="21"/>
			</g>
			<g>
				<path class="st6" d="M3088.14,849h-304.33c-1.56,0-2.83-1.27-2.83-2.83V443.83c0-1.56,1.27-2.83,2.83-2.83h304.33
					c1.56,0,2.83,1.27,2.83,2.83v402.33C3090.97,847.73,3089.7,849,3088.14,849z"/>
				<text transform="matrix(1 0 0 1 2797.1401 481.8335)" class="st2 st7">Character name</text>
				<g>
					<path d="M3063.83,830.08h-122.22c-7.39,0-13.39-5.99-13.39-13.39v-19.22c0-7.39,5.99-13.39,13.39-13.39h122.22
						c7.39,0,13.39,5.99,13.39,13.39v19.22C3077.22,824.09,3071.23,830.08,3063.83,830.08z"/>
					<path class="st5" d="M3061.83,828.08h-122.22c-7.39,0-13.39-5.99-13.39-13.39v-19.22c0-7.39,5.99-13.39,13.39-13.39h122.22
						c7.39,0,13.39,5.99,13.39,13.39v19.22C3075.22,822.09,3069.23,828.08,3061.83,828.08z"/>
					<g>
						<rect x="2938.22" y="789.08" class="st5" width="31" height="31"/>
						<line class="st5" x1="2938.22" y1="789.08" x2="2969.22" y2="820.08"/>
						<line class="st5" x1="2969.22" y1="789.08" x2="2938.22" y2="820.08"/>
					</g>
					<text transform="matrix(1 0 0 1 2984.8345 809.8055)" class="st2 st4">Details</text>
				</g>
				<rect x="2797.47" y="507" class="st6" width="277" height="169"/>
				<line x1="2797.47" y1="507" x2="3074.47" y2="676"/>
				<line x1="3074.47" y1="507" x2="2797.47" y2="676"/>
				<rect x="2797.97" y="688" class="st8" width="277" height="21"/>
				<rect x="2797.97" y="718" class="st8" width="277" height="21"/>
				<rect x="2797.97" y="748" class="st8" width="277" height="21"/>
			</g>
		</g>
		<g>
			<defs>
				<rect id="SVGID_1_" x="2095.47" y="857.5" width="1005" height="338"/>
			</defs>
			<clipPath id="SVGID_00000030453482612111864510000002168660004959233462_">
				<use xlink:href="#SVGID_1_"  style="overflow:visible;"/>
			</clipPath>
			<g style="clip-path:url(#SVGID_00000030453482612111864510000002168660004959233462_);">
				<g>
					<path class="st6" d="M2411.14,1274h-304.33c-1.56,0-2.83-1.27-2.83-2.83V868.83c0-1.56,1.27-2.83,2.83-2.83h304.33
						c1.56,0,2.83,1.27,2.83,2.83v402.33C2413.97,1272.73,2412.7,1274,2411.14,1274z"/>
					<text transform="matrix(1 0 0 1 2120.1401 906.8335)" class="st2 st7">Character name</text>
					<g>
						<path d="M2386.83,1255.08h-122.22c-7.39,0-13.39-5.99-13.39-13.39v-19.22c0-7.39,5.99-13.39,13.39-13.39h122.22
							c7.39,0,13.39,5.99,13.39,13.39v19.22C2400.22,1249.09,2394.23,1255.08,2386.83,1255.08z"/>
						<path class="st5" d="M2384.83,1253.08h-122.22c-7.39,0-13.39-5.99-13.39-13.39v-19.22c0-7.39,5.99-13.39,13.39-13.39h122.22
							c7.39,0,13.39,5.99,13.39,13.39v19.22C2398.22,1247.09,2392.23,1253.08,2384.83,1253.08z"/>
						<g>
							<rect x="2261.22" y="1214.08" class="st5" width="31" height="31"/>
							<line class="st5" x1="2261.22" y1="1214.08" x2="2292.22" y2="1245.08"/>
							<line class="st5" x1="2292.22" y1="1214.08" x2="2261.22" y2="1245.08"/>
						</g>
						<text transform="matrix(1 0 0 1 2307.8345 1234.8054)" class="st2 st4">Details</text>
					</g>
					<rect x="2120.47" y="932" class="st6" width="277" height="169"/>
					<line x1="2120.47" y1="932" x2="2397.47" y2="1101"/>
					<line x1="2397.47" y1="932" x2="2120.47" y2="1101"/>
					<rect x="2120.97" y="1113" class="st8" width="277" height="21"/>
					<rect x="2120.97" y="1143" class="st8" width="277" height="21"/>
					<rect x="2120.97" y="1173" class="st8" width="277" height="21"/>
				</g>
				<g>
					<path class="st6" d="M2749.64,1274h-304.33c-1.56,0-2.83-1.27-2.83-2.83V868.83c0-1.56,1.27-2.83,2.83-2.83h304.33
						c1.56,0,2.83,1.27,2.83,2.83v402.33C2752.47,1272.73,2751.2,1274,2749.64,1274z"/>
					<text transform="matrix(1 0 0 1 2458.6401 906.8335)" class="st2 st7">Character name</text>
					<g>
						<path d="M2725.33,1255.08h-122.22c-7.39,0-13.39-5.99-13.39-13.39v-19.22c0-7.39,5.99-13.39,13.39-13.39h122.22
							c7.39,0,13.39,5.99,13.39,13.39v19.22C2738.72,1249.09,2732.73,1255.08,2725.33,1255.08z"/>
						<path class="st5" d="M2723.33,1253.08h-122.22c-7.39,0-13.39-5.99-13.39-13.39v-19.22c0-7.39,5.99-13.39,13.39-13.39h122.22
							c7.39,0,13.39,5.99,13.39,13.39v19.22C2736.72,1247.09,2730.73,1253.08,2723.33,1253.08z"/>
						<g>
							<rect x="2599.72" y="1214.08" class="st5" width="31" height="31"/>
							<line class="st5" x1="2599.72" y1="1214.08" x2="2630.72" y2="1245.08"/>
							<line class="st5" x1="2630.72" y1="1214.08" x2="2599.72" y2="1245.08"/>
						</g>
						<text transform="matrix(1 0 0 1 2646.3345 1234.8054)" class="st2 st4">Details</text>
					</g>
					<rect x="2458.97" y="932" class="st6" width="277" height="169"/>
					<line x1="2458.97" y1="932" x2="2735.97" y2="1101"/>
					<line x1="2735.97" y1="932" x2="2458.97" y2="1101"/>
					<rect x="2459.47" y="1113" class="st8" width="277" height="21"/>
					<rect x="2459.47" y="1143" class="st8" width="277" height="21"/>
					<rect x="2459.47" y="1173" class="st8" width="277" height="21"/>
				</g>
				<g>
					<path class="st6" d="M3088.14,1274h-304.33c-1.56,0-2.83-1.27-2.83-2.83V868.83c0-1.56,1.27-2.83,2.83-2.83h304.33
						c1.56,0,2.83,1.27,2.83,2.83v402.33C3090.97,1272.73,3089.7,1274,3088.14,1274z"/>
					<text transform="matrix(1 0 0 1 2797.1401 906.8335)" class="st2 st7">Character name</text>
					<g>
						<path d="M3063.83,1255.08h-122.22c-7.39,0-13.39-5.99-13.39-13.39v-19.22c0-7.39,5.99-13.39,13.39-13.39h122.22
							c7.39,0,13.39,5.99,13.39,13.39v19.22C3077.22,1249.09,3071.23,1255.08,3063.83,1255.08z"/>
						<path class="st5" d="M3061.83,1253.08h-122.22c-7.39,0-13.39-5.99-13.39-13.39v-19.22c0-7.39,5.99-13.39,13.39-13.39h122.22
							c7.39,0,13.39,5.99,13.39,13.39v19.22C3075.22,1247.09,3069.23,1253.08,3061.83,1253.08z"/>
						<g>
							<rect x="2938.22" y="1214.08" class="st5" width="31" height="31"/>
							<line class="st5" x1="2938.22" y1="1214.08" x2="2969.22" y2="1245.08"/>
							<line class="st5" x1="2969.22" y1="1214.08" x2="2938.22" y2="1245.08"/>
						</g>
						<text transform="matrix(1 0 0 1 2984.8345 1234.8054)" class="st2 st4">Details</text>
					</g>
					<rect x="2797.47" y="932" class="st6" width="277" height="169"/>
					<line x1="2797.47" y1="932" x2="3074.47" y2="1101"/>
					<line x1="3074.47" y1="932" x2="2797.47" y2="1101"/>
					<rect x="2797.97" y="1113" class="st8" width="277" height="21"/>
					<rect x="2797.97" y="1143" class="st8" width="277" height="21"/>
					<rect x="2797.97" y="1173" class="st8" width="277" height="21"/>
				</g>
			</g>
		</g>
	</g>
	<text transform="matrix(1 0 0 1 782.6936 162)" class="st2 st10">List view example:</text>
	<text transform="matrix(1 0 0 1 2436.1938 162)" class="st2 st10">Grid view example:</text>
</g>
</svg>
