<?xml version="1.0" standalone="no"?>
<!DOCTYPE svg PUBLIC "-//W3C//DTD SVG 20010904//EN"
 "http://www.w3.org/TR/2001/REC-SVG-20010904/DTD/svg10.dtd">
<svg version="1.0" xmlns="http://www.w3.org/2000/svg"
 width="256.000000pt" height="256.000000pt" viewBox="0 0 256.000000 256.000000"
 preserveAspectRatio="xMidYMid meet">
<metadata>
Created by potrace 1.14, written by Peter Selinger 2001-2017
</metadata>
<g transform="translate(0.000000,256.000000) scale(0.100000,-0.100000)"
fill="#000000" stroke="none">
<path d="M443 2219 c-49 -23 -99 -80 -113 -129 -15 -52 -13 -1558 1 -1616 7
-26 26 -60 48 -83 69 -74 29 -71 901 -71 873 0 832 -3 901 72 20 21 41 56 48
77 8 27 11 260 11 809 0 853 1 834 -64 897 -70 68 -20 65 -898 64 -762 -1
-795 -1 -835 -20z m728 -311 c3 -42 0 -190 -4 -195 -3 -3 -51 -5 -106 -5
l-101 0 0 -127 c0 -103 -4 -134 -20 -168 -26 -58 -61 -94 -112 -114 l-43 -17
35 -15 c52 -22 104 -75 123 -125 9 -23 17 -44 17 -47 0 -3 0 -59 0 -124 l0
-120 63 1 c34 0 82 0 107 -1 l45 -1 0 -105 0 -105 -120 0 c-143 0 -184 10
-235 56 -51 46 -69 98 -74 214 -2 52 -5 96 -6 98 -2 1 -3 5 -4 10 -1 4 -9 24
-19 44 -24 50 -68 85 -131 103 l-54 16 2 101 1 101 46 11 c58 15 101 46 131
94 28 46 29 49 33 147 6 131 13 159 50 203 59 68 100 82 248 82 94 0 127 -3
128 -12z m511 -7 c93 -41 128 -106 130 -248 1 -78 6 -106 24 -143 28 -58 72
-96 127 -111 23 -6 47 -13 53 -14 15 -4 16 -206 0 -210 -6 -1 -30 -8 -53 -14
-53 -15 -98 -52 -125 -105 -16 -31 -22 -65 -25 -141 -5 -118 -15 -155 -55
-200 -52 -60 -78 -68 -233 -73 l-140 -4 2 102 c1 56 4 104 7 107 3 3 50 6 106
6 l100 0 0 118 c0 177 29 243 129 290 28 13 40 24 31 26 -52 15 -109 61 -140
113 -10 17 -16 68 -20 165 l-5 140 -103 0 -102 0 -1 43 c-1 54 -1 126 0 152 1
19 8 20 125 20 100 0 133 -4 168 -19z"/>
</g>
</svg>
